HIERARCHY
ROOT Hips
{
	OFFSET -0.001795 -0.223333 0.028219
	CHANNELS 6 Xposition Yposition Zposition Zrotation Yrotation Xrotation 
	JOINT LeftUpLeg
	{
		OFFSET 0.069520 -0.091406 -0.006815
		CHANNELS 3 Zrotation Yrotation Xrotation
		JOINT LeftLeg
		{
			OFFSET 0.034277 -0.375199 -0.004496
			CHANNELS 3 Zrotation Yrotation Xrotation
			JOINT LeftFoot
			{
				OFFSET -0.013596 -0.397961 -0.043693
				CHANNELS 3 Zrotation Yrotation Xrotation
				JOINT LeftToe
				{
					OFFSET 0.026358 -0.055791 0.119288
					CHANNELS 3 Zrotation Yrotation Xrotation
					End Site
					{
						OFFSET 0.000000 0.000000 0.000000
					}
				}
			}
		}
	}
	JOINT RightUpLeg
	{
		OFFSET -0.067670 -0.090522 -0.004320
		CHANNELS 3 Zrotation Yrotation Xrotation
		JOINT RightLeg
		{
			OFFSET -0.038290 -0.382569 -0.008850
			CHANNELS 3 Zrotation Yrotation Xrotation
			JOINT RightFoot
			{
				OFFSET 0.015774 -0.398415 -0.042312
				CHANNELS 3 Zrotation Yrotation Xrotation
				JOINT RightToe
				{
					OFFSET -0.025372 -0.048144 0.123348
					CHANNELS 3 Zrotation Yrotation Xrotation
					End Site
					{
						OFFSET 0.000000 0.000000 0.000000
					}
				}
			}
		}
	}
	JOINT Spine
	{
		OFFSET -0.002533 0.108963 -0.026696
		CHANNELS 3 Zrotation Yrotation Xrotation
		JOINT Spine1
		{
			OFFSET 0.005487 0.135180 0.001092
			CHANNELS 3 Zrotation Yrotation Xrotation
			JOINT Spine2
			{
				OFFSET 0.001457 0.052922 0.025425
				CHANNELS 3 Zrotation Yrotation Xrotation
				JOINT Neck
				{
					OFFSET -0.002778 0.213870 -0.042857
					CHANNELS 3 Zrotation Yrotation Xrotation
					JOINT Head
					{
						OFFSET 0.005152 0.064970 0.051349
						CHANNELS 3 Zrotation Yrotation Xrotation
						End Site
						{
							OFFSET 0.000000 0.000000 0.000000
						}
					}
				}
				JOINT LeftShoulder
				{
					OFFSET 0.078845 0.121749 -0.034090
					CHANNELS 3 Zrotation Yrotation Xrotation
					JOINT LeftArm
					{
						OFFSET 0.090977 0.030469 -0.008868
						CHANNELS 3 Zrotation Yrotation Xrotation
						JOINT LeftForeArm
						{
							OFFSET 0.259612 -0.012772 -0.027456
							CHANNELS 3 Zrotation Yrotation Xrotation
							JOINT LeftHand
							{
								OFFSET 0.249234 0.008986 -0.001171
								CHANNELS 3 Zrotation Yrotation Xrotation
								End Site
								{
									OFFSET 0.000000 0.000000 0.000000
								}
							}
						}
					}
				}
				JOINT RightShoulder
				{
					OFFSET -0.081759 0.118833 -0.038615
					CHANNELS 3 Zrotation Yrotation Xrotation
					JOINT RightArm
					{
						OFFSET -0.096012 0.032551 -0.009143
						CHANNELS 3 Zrotation Yrotation Xrotation
						JOINT RightForeArm
						{
							OFFSET -0.253742 -0.013329 -0.021401
							CHANNELS 3 Zrotation Yrotation Xrotation
							JOINT RightHand
							{
								OFFSET -0.255298 0.007772 -0.005559
								CHANNELS 3 Zrotation Yrotation Xrotation
								End Site
								{
									OFFSET 0.000000 0.000000 0.000000
								}
							}
						}
					}
				}
			}
		}
	}
}
MOTION
Frames: 13
Frame Time: 0.050000
-0.085848 0.923509 0.278842 -3.034225 3.904531 6.714699 20.813703 0.725473 -18.063743 -5.930102 0.830663 20.030220 -2.249528 1.129914 11.765197 0.000000 0.000000 0.000000 8.131827 4.268596 -27.538975 -3.390770 2.237392 31.148752 -0.357269 -5.015971 11.261261 0.000000 0.000000 0.000000 -8.530521 0.791199 24.554174 -0.022747 0.559395 -17.551195 -13.828575 -13.553987 26.974957 5.822234 -5.373782 -8.336740 0.000000 0.000000 0.000000 -15.928472 -29.302718 16.687198 -40.007748 -48.103497 10.107390 29.277477 -21.941946 -3.953616 0.000000 0.000000 0.000000 -28.716969 13.350250 4.437696 -0.968045 30.907257 -3.498784 -53.836253 14.266937 -8.932472 0.000000 0.000000 0.000000 
-0.087025 0.923686 0.281692 -3.199808 3.820211 5.744763 21.070248 0.723032 -17.157890 -5.493723 0.707704 20.371578 -3.121721 -0.054508 12.409826 0.000000 0.000000 0.000000 8.588222 4.157626 -26.122587 -2.874368 2.036729 31.202489 -1.448705 -6.869347 10.189874 0.000000 0.000000 0.000000 -9.391979 0.909032 21.684483 -0.877916 0.791044 -16.244533 -13.442345 -12.614326 26.809597 6.552217 -5.865881 -8.512344 0.000000 0.000000 0.000000 -17.204697 -28.679733 16.589914 -40.028596 -47.082463 9.523927 30.291108 -24.440844 -4.646998 0.000000 0.000000 0.000000 -29.556229 12.376257 4.130662 -1.549539 28.502366 -3.105604 -52.780041 10.935072 -6.978939 0.000000 0.000000 0.000000 
-0.086959 0.923322 0.283630 -3.410490 4.635627 4.987571 21.065780 0.640356 -16.835573 -4.704700 0.426572 20.761714 -3.987091 -1.414027 12.392210 0.000000 0.000000 0.000000 8.895531 3.989362 -24.886886 -2.180086 1.651727 30.936401 -2.910607 -9.476860 9.257948 0.000000 0.000000 0.000000 -9.986091 0.919514 20.112376 -1.278174 0.941252 -16.959738 -13.120505 -12.106300 27.524523 7.010314 -5.987786 -10.334859 0.000000 0.000000 0.000000 -17.894464 -27.630756 16.022950 -40.660319 -46.579911 9.401379 31.764281 -26.596984 -5.389384 0.000000 0.000000 0.000000 -30.947566 11.599291 3.770127 -2.730282 26.536624 -2.891644 -48.240834 5.987151 -3.919270 0.000000 0.000000 0.000000 
-0.084835 0.923541 0.285018 -3.587917 4.688668 3.907678 21.222682 0.653923 -16.395140 -4.874870 0.457044 21.490014 -4.275445 -1.256970 13.685466 0.000000 0.000000 0.000000 9.358092 3.804772 -23.135589 -1.978235 1.524455 29.999623 -4.191427 -11.991568 9.110357 0.000000 0.000000 0.000000 -10.469664 0.924707 18.594087 -1.675685 1.064777 -16.961032 -12.601985 -10.867863 27.305735 7.883853 -6.211736 -12.630554 0.000000 0.000000 0.000000 -18.156706 -26.918913 15.363421 -41.115314 -46.325762 9.407277 32.365479 -27.016475 -5.649352 0.000000 0.000000 0.000000 -30.892890 11.584782 3.434087 -4.988934 24.735290 -2.775546 -42.987176 1.114603 -1.288687 0.000000 0.000000 0.000000 
-0.080659 0.922938 0.286524 -3.414372 4.749339 3.223288 20.658010 0.599047 -16.134311 -4.397245 0.293399 22.337326 -4.838186 -2.158192 13.695604 0.000000 0.000000 0.000000 8.981350 3.581888 -22.109635 -1.553404 1.336221 29.662327 -5.033678 -13.615381 8.779712 0.000000 0.000000 0.000000 -10.349198 0.822543 16.786030 -2.495666 1.316234 -17.534715 -12.318588 -10.326688 27.403439 8.403344 -6.203565 -14.895595 0.000000 0.000000 0.000000 -18.972072 -26.537294 15.255977 -41.806200 -46.315659 9.575744 32.410121 -26.658999 -5.571104 0.000000 0.000000 0.000000 -31.167525 11.622043 3.271334 -7.779448 24.804227 -3.088190 -36.206669 -2.935505 0.366818 0.000000 0.000000 0.000000 
-0.074731 0.922163 0.288619 -3.684603 5.068637 2.194892 20.337347 0.508135 -15.244205 -4.116704 0.165138 22.874096 -4.510862 -2.154303 12.466194 0.000000 0.000000 0.000000 9.087886 3.374242 -20.673668 -1.648213 1.312622 29.041259 -5.572713 -14.668520 9.160090 0.000000 0.000000 0.000000 -10.135351 0.693741 15.199148 -2.971371 1.468169 -17.736672 -11.844508 -9.331210 27.324196 9.342607 -6.171738 -18.164596 0.000000 0.000000 0.000000 -19.606647 -25.771376 14.666775 -43.052550 -46.266231 9.940358 31.150996 -26.182015 -5.233171 0.000000 0.000000 0.000000 -30.826473 11.808583 2.981211 -9.099803 24.306108 -3.045793 -32.444481 -4.679339 0.987574 0.000000 0.000000 0.000000 
-0.067464 0.920708 0.291668 -3.571322 5.351311 1.253535 19.731989 0.400653 -14.313519 -4.036130 0.107527 22.998201 -4.499656 -2.304030 12.023579 0.000000 0.000000 0.000000 8.603749 3.085420 -19.274625 -1.705567 1.295086 28.914442 -5.758407 -14.949652 8.311238 0.000000 0.000000 0.000000 -9.967349 0.591278 13.820787 -2.859924 1.446825 -17.877156 -11.796317 -8.921944 27.410754 9.906371 -6.164053 -19.942799 0.000000 0.000000 0.000000 -21.033283 -25.074963 14.508060 -43.429514 -45.970699 9.849176 29.542509 -26.000499 -4.879095 0.000000 0.000000 0.000000 -30.256358 12.251861 2.883506 -10.753085 24.989482 -3.337593 -29.530698 -5.776341 1.243963 0.000000 0.000000 0.000000 
-0.059141 0.922160 0.295373 -3.619180 5.370552 0.225850 18.964992 0.261150 -12.528647 -3.381573 -0.087296 22.365622 -4.690621 -3.000159 11.242115 0.000000 0.000000 0.000000 8.702976 2.815511 -17.391548 -2.590557 1.596557 28.150011 -5.734188 -14.894374 8.327157 0.000000 0.000000 0.000000 -9.434610 0.447375 12.060461 -3.106661 1.528618 -17.611892 -11.857370 -8.233001 26.911786 10.365090 -5.967947 -21.792019 0.000000 0.000000 0.000000 -22.264476 -24.153475 14.055330 -43.957665 -45.223543 9.686724 26.860142 -25.485436 -4.272505 0.000000 0.000000 0.000000 -29.592180 12.082647 2.761869 -11.082735 25.695607 -3.450814 -27.326315 -3.878808 0.849184 0.000000 0.000000 0.000000 
-0.049605 0.926181 0.299142 -3.635057 5.662865 -0.413730 18.316235 0.098077 -10.493362 -3.115506 -0.119482 20.206226 -5.151217 -3.646094 11.404453 0.000000 0.000000 0.000000 8.394269 2.441763 -15.257603 -3.089982 1.673270 26.143235 -5.670831 -14.770298 8.826405 0.000000 0.000000 0.000000 -9.120894 0.348717 10.465685 -3.257760 1.581716 -17.936335 -12.117752 -7.423427 26.961307 11.761493 -6.394149 -23.231766 0.000000 0.000000 0.000000 -23.100733 -23.397406 13.496691 -45.036716 -45.009467 9.952839 24.767948 -25.053440 -3.809124 0.000000 0.000000 0.000000 -28.907594 11.738664 2.555960 -10.525293 26.085628 -3.352631 -25.790866 -2.619161 0.650230 0.000000 0.000000 0.000000 
-0.038824 0.931957 0.302129 -3.702136 5.851834 -0.890162 17.621469 -0.056438 -8.259841 -2.921647 -0.121496 18.289727 -5.213537 -4.537892 9.926661 0.000000 0.000000 0.000000 8.115398 2.132109 -13.461226 -3.721800 1.794979 24.254447 -5.468133 -14.439374 10.278033 0.000000 0.000000 0.000000 -8.267357 0.228365 8.921238 -3.862704 1.765052 -18.179203 -12.426285 -6.963258 26.911486 12.324405 -6.416928 -24.261456 0.000000 0.000000 0.000000 -23.419719 -22.106279 12.613858 -46.495832 -44.868466 10.382612 22.515762 -25.010831 -3.350523 0.000000 0.000000 0.000000 -28.678382 11.286072 2.409403 -10.926738 26.889050 -3.508672 -24.301974 -2.229746 0.598505 0.000000 0.000000 0.000000 
-0.027131 0.935885 0.304465 -3.925456 5.517621 -0.485096 17.184434 -0.120536 -7.201373 -3.110294 -0.002237 16.478751 -4.991763 -4.451693 9.431955 0.000000 0.000000 0.000000 7.874171 1.972580 -12.633150 -4.325971 1.918685 22.308469 -5.084075 -13.793825 11.119918 0.000000 0.000000 0.000000 -7.648774 0.172594 7.442486 -4.346334 1.886911 -18.600929 -12.606985 -6.077157 26.457998 13.126642 -6.759722 -24.203198 0.000000 0.000000 0.000000 -23.574177 -21.170779 11.833515 -48.392649 -44.251997 10.783522 21.513237 -25.557313 -3.233493 0.000000 0.000000 0.000000 -28.234065 10.627677 2.246488 -11.986569 27.430468 -3.704386 -21.534925 -2.561391 0.645814 0.000000 0.000000 0.000000 
-0.014903 0.938292 0.306490 -4.016063 5.439048 -0.453232 16.383699 -0.148811 -6.911799 -3.159256 0.022060 16.102154 -4.659874 -3.742650 9.632821 0.000000 0.000000 0.000000 7.592911 1.806780 -11.741226 -4.823639 2.026785 21.405959 -5.084233 -13.786373 10.871685 0.000000 0.000000 0.000000 -7.133215 0.130132 6.533083 -4.901059 2.027156 -19.262307 -12.310012 -5.772367 26.283795 13.409201 -6.775363 -24.707608 0.000000 0.000000 0.000000 -24.220309 -20.265358 11.323105 -49.695389 -43.741378 10.960978 21.107550 -26.882274 -3.307828 0.000000 0.000000 0.000000 -28.422807 10.497574 2.157117 -12.518652 27.820271 -3.832806 -20.414983 -2.863697 0.676240 0.000000 0.000000 0.000000 
-0.002683 0.939142 0.309227 -4.128772 5.331307 -0.348440 15.897149 -0.173146 -6.545254 -3.528693 0.124326 15.684912 -4.421073 -3.538576 9.246261 0.000000 0.000000 0.000000 7.276276 1.641235 -10.854136 -4.970736 2.035695 20.727225 -5.349994 -14.229278 9.621834 0.000000 0.000000 0.000000 -6.911397 0.109909 5.635378 -4.886081 2.023125 -19.169077 -12.473716 -5.815732 25.346671 13.563693 -6.832793 -24.597742 0.000000 0.000000 0.000000 -24.910772 -18.254276 10.187547 -51.523283 -42.848618 11.169687 20.604250 -28.808004 -3.411523 0.000000 0.000000 0.000000 -27.511576 10.273318 2.249755 -13.707866 29.346363 -4.368924 -21.184632 -3.002245 0.720868 0.000000 0.000000 0.000000 
